<svg width="181" height="33" viewBox="0 0 181 33" fill="none" xmlns="http://www.w3.org/2000/svg">
<path d="M10.754 25.744H7.754V28.744H10.754V25.744ZM12.824 25.514L13.5875 28.4152L13.637 28.4022L13.686 28.3875L12.824 25.514ZM14.526 24.594L16.4331 26.9098L16.4399 26.9042L16.4466 26.8987L14.526 24.594ZM15.86 22.8L18.5872 24.05H18.5872L15.86 22.8ZM16.642 19.994L13.6916 19.4505L13.6858 19.4821L13.6807 19.5138L16.642 19.994ZM16.504 11.484L13.5936 12.2116L13.5958 12.2204L13.598 12.2291L16.504 11.484ZM15.17 8.724L12.9454 10.7367L12.9699 10.7638L12.995 10.7902L15.17 8.724ZM13.238 7.39L12.1021 10.1666L12.1765 10.1971L12.2524 10.2235L13.238 7.39ZM10.754 6.93L10.8477 3.93146L7.754 3.83479V6.93H10.754ZM23.634 4.676L21.5593 6.84292L21.565 6.8484L21.5708 6.85386L23.634 4.676ZM27.544 20.638L24.6071 20.0261L24.6009 20.0556L24.5954 20.0851L27.544 20.638ZM26.118 24.962L28.8132 26.2796L28.8188 26.268L28.8244 26.2564L26.118 24.962ZM23.588 28.596L25.7093 30.7173L25.7252 30.7015L25.7407 30.6854L23.588 28.596ZM19.724 31.08L20.8193 33.8729L20.8428 33.8637L20.8663 33.854L19.724 31.08ZM1.324 30.574L-0.974575 32.5018L-0.956608 32.5233L-0.938245 32.5443L1.324 30.574ZM10.754 28.744C11.7313 28.744 12.6903 28.6513 13.5875 28.4152L12.0605 22.6128C11.7924 22.6833 11.3713 22.744 10.754 22.744V28.744ZM13.686 28.3875C14.702 28.0827 15.6211 27.5785 16.4331 26.9098L12.6189 22.2782C12.3883 22.4681 12.1727 22.5773 11.962 22.6405L13.686 28.3875ZM16.4466 26.8987C17.3842 26.1173 18.0869 25.1414 18.5872 24.05L13.1328 21.55C12.9584 21.9306 12.7718 22.1507 12.6054 22.2893L16.4466 26.8987ZM18.5872 24.05C19.0728 22.9904 19.3927 21.7732 19.6033 20.4742L13.6807 19.5138C13.5233 20.4841 13.3218 21.1376 13.1328 21.55L18.5872 24.05ZM19.5924 20.5375C19.8486 19.1466 19.964 17.5922 19.964 15.9H13.964C13.964 17.3358 13.8647 18.5108 13.6916 19.4505L19.5924 20.5375ZM19.964 15.9C19.964 13.9957 19.799 12.2558 19.41 10.7389L13.598 12.2291C13.8224 13.1042 13.964 14.3083 13.964 15.9H19.964ZM19.4144 10.7564C19.0397 9.25741 18.418 7.78719 17.345 6.65775L12.995 10.7902C13.0874 10.8875 13.355 11.2573 13.5936 12.2116L19.4144 10.7564ZM17.3946 6.71126C16.5297 5.75526 15.4765 4.99231 14.2236 4.55651L12.2524 10.2235C12.4102 10.2784 12.645 10.4047 12.9454 10.7367L17.3946 6.71126ZM14.3739 4.61336C13.275 4.16379 12.0706 3.96968 10.8477 3.93146L10.6603 9.92854C11.4001 9.95165 11.8517 10.0642 12.1021 10.1666L14.3739 4.61336ZM7.754 6.93V25.744H13.754V6.93H7.754ZM12.134 3.536C16.3083 3.536 19.3428 4.72079 21.5593 6.84292L25.7087 2.50907C22.1598 -0.888792 17.5277 -2.464 12.134 -2.464V3.536ZM21.5708 6.85386C23.7644 8.93207 25.004 11.8784 25.004 16.084H31.004C31.004 10.599 29.3302 5.93993 25.6972 2.49814L21.5708 6.85386ZM25.004 16.084C25.004 17.4507 24.8702 18.7633 24.6071 20.0261L30.4809 21.2499C30.8312 19.5687 31.004 17.8453 31.004 16.084H25.004ZM24.5954 20.0851C24.3696 21.2894 23.9786 22.4821 23.4116 23.6676L28.8244 26.2564C29.6068 24.6205 30.1664 22.9306 30.4926 21.1909L24.5954 20.0851ZM23.4228 23.6444C22.8792 24.7564 22.2146 25.7036 21.4353 26.5066L25.7407 30.6854C26.9854 29.403 28.0075 27.9276 28.8132 26.2796L23.4228 23.6444ZM21.4667 26.4747C20.7808 27.1605 19.845 27.7858 18.5818 28.306L20.8663 33.854C22.731 33.0862 24.3712 32.0555 25.7093 30.7173L21.4667 26.4747ZM18.6287 28.2871C17.4671 28.7426 16.0839 29 14.434 29V35C16.7094 35 18.8529 34.6441 20.8193 33.8729L18.6287 28.2871ZM14.434 29H5.372V35H14.434V29ZM5.372 29C3.94296 29 3.61436 28.6359 3.58625 28.6037L-0.938245 32.5443C0.689636 34.4134 3.0597 35 5.372 35V29ZM3.62257 28.6462C3.62753 28.6521 3.48392 28.4746 3.34929 27.8946C3.21779 27.3282 3.128 26.5206 3.128 25.422H-2.872C-2.872 28.0126 -2.49992 30.6832 -0.974575 32.5018L3.62257 28.6462ZM3.128 25.422V6.01H-2.872V25.422H3.128ZM3.128 6.01C3.128 4.61634 3.46376 4.12761 3.60534 3.97982C3.7239 3.85607 4.12001 3.536 5.372 3.536V-2.464C3.12799 -2.464 0.902105 -1.87174 -0.727343 -0.170821C-2.33376 1.50606 -2.872 3.75432 -2.872 6.01H3.128ZM5.372 3.536H12.134V-2.464H5.372V3.536ZM42.2974 22.294H45.2974V22.2858L45.2974 22.2776L42.2974 22.294ZM45.5174 24.502L47.4171 26.8239L47.4276 26.8153L47.438 26.8067L45.5174 24.502ZM47.1734 12.588L49.878 13.8862L49.8878 13.8658L49.8973 13.8452L47.1734 12.588ZM55.1314 11.208L53.2573 13.5506L53.2815 13.57L53.3061 13.5888L55.1314 11.208ZM55.3614 30.988L53.3303 28.7802L55.3614 30.988ZM49.1974 31.816L48.294 34.6767L48.3635 34.6987L48.4339 34.7172L49.1974 31.816ZM47.7714 31.034L45.6501 33.1553L45.6962 33.2014L45.7443 33.2455L47.7714 31.034ZM46.9894 29.7L49.8355 28.7513L48.6007 25.0469L45.3395 27.1945L46.9894 29.7ZM42.9874 31.448L42.2897 28.5303L42.2824 28.532L42.2751 28.5338L42.9874 31.448ZM33.6494 29.424L31.0247 30.8769L31.0303 30.887L31.036 30.897L33.6494 29.424ZM32.3614 16.314L35.3526 16.5441L35.353 16.5384L32.3614 16.314ZM32.7754 13.186L29.8592 12.4821L29.8501 12.5196L29.842 12.5574L32.7754 13.186ZM33.6954 11.208L31.5741 9.08668L31.5348 9.12595L31.497 9.16665L33.6954 11.208ZM35.1674 10.288L34.264 7.42725L34.2413 7.43442L34.2187 7.44195L35.1674 10.288ZM41.1014 10.978L39.1259 13.2357L39.1487 13.2557L39.1718 13.2751L41.1014 10.978ZM42.2514 13.876H39.2514V13.8842L39.2515 13.8924L42.2514 13.876ZM39.2974 22.294C39.2974 23.4703 39.51 24.9036 40.4286 26.0937C41.4609 27.4309 42.9467 27.916 44.3214 27.916V21.916C44.3038 21.916 44.4286 21.913 44.6252 21.9979C44.8398 22.0906 45.0367 22.244 45.1782 22.4273C45.3076 22.595 45.3345 22.7139 45.3293 22.6935C45.3229 22.6689 45.2974 22.5478 45.2974 22.294H39.2974ZM44.3214 27.916C45.4325 27.916 46.5126 27.5639 47.4171 26.8239L43.6177 22.1801C43.7134 22.1019 43.8384 22.028 43.9841 21.9775C44.1277 21.9278 44.2475 21.916 44.3214 21.916V27.916ZM47.438 26.8067C48.2813 26.1039 48.8388 25.2093 49.1744 24.2585L43.5165 22.2615C43.4983 22.313 43.4898 22.3191 43.5043 22.2974C43.5114 22.2868 43.5228 22.2713 43.5392 22.2529C43.5557 22.2344 43.5751 22.2155 43.5969 22.1973L47.438 26.8067ZM49.1744 24.2585C49.4934 23.3546 49.6214 22.4084 49.6214 21.466H43.6214C43.6214 21.873 43.5654 22.1227 43.5165 22.2615L49.1744 24.2585ZM49.6214 21.466V15.302H43.6214V21.466H49.6214ZM49.6214 15.302C49.6214 14.6091 49.7434 14.1666 49.878 13.8862L44.4689 11.2898C43.8675 12.5427 43.6214 13.9095 43.6214 15.302H49.6214ZM49.8973 13.8452C50.0322 13.5528 50.18 13.41 50.3433 13.3106L47.2236 8.1854C45.9762 8.94468 45.0506 10.0285 44.4495 11.3308L49.8973 13.8452ZM50.3433 13.3106C50.5111 13.2084 50.7822 13.104 51.2674 13.104V7.104C49.8513 7.104 48.4664 7.42889 47.2236 8.1854L50.3433 13.3106ZM51.2674 13.104C52.5135 13.104 53.0482 13.3833 53.2573 13.5506L57.0055 8.86539C55.3746 7.56068 53.3333 7.104 51.2674 7.104V13.104ZM53.3061 13.5888C53.214 13.5182 53.2566 13.4928 53.3338 13.7141C53.4195 13.9598 53.5114 14.415 53.5114 15.164H59.5114C59.5114 12.9129 58.9966 10.3911 56.9567 8.82718L53.3061 13.5888ZM53.5114 15.164V27.124H59.5114V15.164H53.5114ZM53.5114 27.124C53.5114 27.8739 53.4323 28.3559 53.3486 28.6372C53.2673 28.9101 53.2157 28.8856 53.3303 28.7802L57.3926 33.1958C59.1186 31.6078 59.5114 29.2156 59.5114 27.124H53.5114ZM53.3303 28.7802C53.4094 28.7074 53.37 28.7864 53.0158 28.879C52.6633 28.9711 52.1139 29.046 51.3134 29.046V35.046C53.4257 35.046 55.7604 34.6974 57.3926 33.1958L53.3303 28.7802ZM51.3134 29.046C50.6544 29.046 50.2211 28.9833 49.9609 28.9148L48.4339 34.7172C49.3391 34.9554 50.3165 35.046 51.3134 35.046V29.046ZM50.1008 28.9553C49.8441 28.8742 49.7799 28.8054 49.7986 28.8225L45.7443 33.2455C46.499 33.9373 47.3854 34.3898 48.294 34.6767L50.1008 28.9553ZM49.8927 28.9127C49.9493 28.9692 49.9041 28.9571 49.8355 28.7513L44.1434 30.6487C44.4428 31.5469 44.9189 32.4241 45.6501 33.1553L49.8927 28.9127ZM45.3395 27.1945C44.362 27.8382 43.3486 28.277 42.2897 28.5303L43.6851 34.3657C45.4476 33.9443 47.1022 33.2178 48.6394 32.2055L45.3395 27.1945ZM42.2751 28.5338C41.1707 28.8038 39.8668 28.954 38.3414 28.954V34.954C40.2507 34.954 42.0442 34.7669 43.6998 34.3622L42.2751 28.5338ZM38.3414 28.954C37.0837 28.954 36.6062 28.5601 36.2629 27.951L31.036 30.897C32.5939 33.6612 35.2445 34.954 38.3414 34.954V28.954ZM36.2741 27.9711C35.7115 26.9547 35.2234 24.8008 35.2234 21.006H29.2234C29.2234 25.0006 29.686 28.4586 31.0247 30.8769L36.2741 27.9711ZM35.2234 21.006C35.2234 19.1106 35.2689 17.6319 35.3526 16.5441L29.3703 16.0839C29.2699 17.3881 29.2234 19.0374 29.2234 21.006H35.2234ZM35.353 16.5384C35.4385 15.3983 35.5622 14.4991 35.7088 13.8146L29.842 12.5574C29.6207 13.5903 29.4683 14.7764 29.3698 16.0896L35.353 16.5384ZM35.6917 13.8899C35.7637 13.5914 35.8352 13.4001 35.8866 13.2897C35.9382 13.1787 35.9522 13.1865 35.8938 13.2494L31.497 9.16665C30.605 10.1273 30.1329 11.348 29.8592 12.4821L35.6917 13.8899ZM35.8167 13.3293C35.9315 13.2146 36.0253 13.1643 36.1161 13.134L34.2187 7.44195C33.2055 7.77969 32.318 8.34278 31.5741 9.08668L35.8167 13.3293ZM36.0708 13.1487C36.2533 13.0911 36.6694 13.012 37.4214 13.012V7.012C36.3335 7.012 35.2468 7.11689 34.264 7.42725L36.0708 13.1487ZM37.4214 13.012C38.1072 13.012 38.5731 13.0778 38.8677 13.1552C39.1607 13.2321 39.1951 13.2963 39.1259 13.2357L43.0769 8.72027C41.5095 7.34873 39.3674 7.012 37.4214 7.012V13.012ZM39.1718 13.2751C39.1727 13.2759 39.168 13.2716 39.1633 13.2651C39.159 13.2591 39.1646 13.2648 39.1754 13.292C39.1983 13.3497 39.2514 13.5233 39.2514 13.876H45.2514C45.2514 11.975 44.6608 10.0499 43.031 8.68089L39.1718 13.2751ZM39.2515 13.8924L39.2975 22.3104L45.2974 22.2776L45.2514 13.8596L39.2515 13.8924ZM78.9134 11.484L77.3457 14.0418L78.9134 11.484ZM78.4534 16.452L76.8891 19.0118L76.9421 19.0443L76.9965 19.0745L78.4534 16.452ZM76.8894 15.394L78.6894 12.994V12.994L76.8894 15.394ZM74.9574 14.382L76.0344 11.582H76.0344L74.9574 14.382ZM71.5534 16.268L70.2118 18.9513H70.2118L71.5534 16.268ZM74.2214 17.234L73.3872 20.1157L73.3971 20.1186L73.407 20.1213L74.2214 17.234ZM76.9354 18.2L75.5938 20.8833L75.7209 20.9468L75.8535 20.9981L76.9354 18.2ZM81.6734 21.098L79.3576 23.0051L79.3716 23.0221L79.3859 23.0389L81.6734 21.098ZM82.2714 27.63L84.87 29.1292L84.8821 29.1081L84.8939 29.0869L82.2714 27.63ZM80.2014 29.93L82.0267 32.3108L82.0513 32.292L82.0755 32.2726L80.2014 29.93ZM76.4294 31.678L77.2236 34.571L77.2423 34.5658L77.2609 34.5605L76.4294 31.678ZM62.1694 29.608L60.1199 31.7988L60.128 31.8063L60.136 31.8137L62.1694 29.608ZM61.2954 25.468L59.3576 23.1778L59.3121 23.2163L59.2682 23.2565L61.2954 25.468ZM66.1714 26.02L64.8528 28.7146L64.8761 28.7261L64.8996 28.7371L66.1714 26.02ZM71.3694 24.778L70.4802 27.6432L70.5257 27.6573L70.5716 27.67L71.3694 24.778ZM67.8734 23.812L67.1313 26.7188L67.8734 23.812ZM64.4234 22.432L66.0457 19.9085L65.8387 19.7754L65.6127 19.6778L64.4234 22.432ZM61.5714 20.27L58.9833 21.7872L59.0145 21.8404L59.0479 21.8923L61.5714 20.27ZM63.8254 11.806L65.4895 14.3022L65.4981 14.2964L63.8254 11.806ZM71.7834 12.736C74.2342 12.736 76.031 13.236 77.3457 14.0418L80.4811 8.9262C77.9932 7.40136 75.0366 6.736 71.7834 6.736V12.736ZM77.3457 14.0418C78.0933 14.5 78.4733 14.8727 78.649 15.1079C78.7307 15.2172 78.7566 15.2813 78.7631 15.2992C78.7665 15.3087 78.7666 15.3114 78.7661 15.3085C78.7659 15.3074 78.7657 15.3059 78.7656 15.3044C78.7654 15.3029 78.7654 15.302 78.7654 15.302H84.7654C84.7654 12.3492 82.7014 10.287 80.4811 8.9262L77.3457 14.0418ZM78.7654 15.302C78.7654 15.0631 78.8192 14.829 78.9117 14.627C78.9999 14.4347 79.0987 14.3241 79.1381 14.2847L83.3807 18.5273C84.1622 17.7459 84.7654 16.6496 84.7654 15.302H78.7654ZM79.1381 14.2847C79.2509 14.1719 79.405 14.0649 79.5875 13.9932C79.7647 13.9236 79.9052 13.912 79.9714 13.912V19.912C81.2071 19.912 82.4258 19.4822 83.3807 18.5273L79.1381 14.2847ZM79.9714 13.912C80.0764 13.912 80.1291 13.9296 80.117 13.9259C80.1027 13.9216 80.0348 13.8987 79.9104 13.8295L76.9965 19.0745C77.8357 19.5407 78.8467 19.912 79.9714 19.912V13.912ZM80.0178 13.8922C79.5424 13.6017 79.1001 13.302 78.6894 12.994L75.0894 17.794C75.6601 18.222 76.2604 18.6277 76.8891 19.0118L80.0178 13.8922ZM78.6894 12.994C77.9097 12.4092 76.9969 11.9522 76.0344 11.582L73.8805 17.182C74.5126 17.4251 74.8879 17.6428 75.0894 17.794L78.6894 12.994ZM76.0344 11.582C74.8793 11.1377 73.6696 10.922 72.4274 10.922V16.922C72.9639 16.922 73.4408 17.0129 73.8805 17.182L76.0344 11.582ZM72.4274 10.922C71.6192 10.922 70.5077 11.0288 69.5096 11.643C68.2727 12.4042 67.6334 13.6772 67.6334 15.026H73.6334C73.6334 15.2547 73.5843 15.601 73.3834 15.9718C73.1791 16.349 72.8982 16.6028 72.6542 16.753C72.4302 16.8908 72.2655 16.9257 72.2454 16.9298C72.2217 16.9347 72.2731 16.922 72.4274 16.922V10.922ZM67.6334 15.026C67.6334 17.0512 68.9588 18.3248 70.2118 18.9513L72.8951 13.5847C72.8766 13.5755 73.0694 13.6655 73.2741 13.9418C73.5084 14.2581 73.6334 14.6519 73.6334 15.026H67.6334ZM70.2118 18.9513C71.0662 19.3785 72.1583 19.76 73.3872 20.1157L75.0556 14.3523C73.9538 14.0334 73.2673 13.7708 72.8951 13.5847L70.2118 18.9513ZM73.407 20.1213C74.5422 20.4415 75.2334 20.7031 75.5938 20.8833L78.2771 15.5167C77.4108 15.0836 76.2927 14.7012 75.0358 14.3467L73.407 20.1213ZM75.8535 20.9981C78.0101 21.832 78.9984 22.5689 79.3576 23.0051L83.9892 19.1909C82.6311 17.5418 80.4607 16.3467 78.0174 15.4019L75.8535 20.9981ZM79.3859 23.0389C79.6712 23.3752 79.9614 23.9728 79.9614 25.146H85.9614C85.9614 22.9459 85.393 20.8448 83.961 19.1571L79.3859 23.0389ZM79.9614 25.146C79.9614 25.3947 79.8974 25.7258 79.6489 26.1731L84.8939 29.0869C85.5654 27.8782 85.9614 26.5533 85.9614 25.146H79.9614ZM79.6729 26.1308C79.4439 26.5277 79.0335 27.0225 78.3273 27.5874L82.0755 32.2726C83.2094 31.3655 84.179 30.3269 84.87 29.1292L79.6729 26.1308ZM78.3761 27.5492C77.8518 27.9511 76.9756 28.3981 75.5979 28.7955L77.2609 34.5605C79.0726 34.0379 80.711 33.3195 82.0267 32.3108L78.3761 27.5492ZM75.6353 28.785C74.3847 29.1283 72.8664 29.322 71.0474 29.322V35.322C73.2764 35.322 75.3462 35.0863 77.2236 34.571L75.6353 28.785ZM71.0474 29.322C67.4886 29.322 65.3958 28.5021 64.2028 27.4023L60.136 31.8137C62.8683 34.3326 66.6942 35.322 71.0474 35.322V29.322ZM64.2189 27.4172C63.9322 27.149 63.811 26.9627 63.7652 26.8739C63.7274 26.8008 63.7434 26.8023 63.7434 26.848H57.7434C57.7434 28.9003 58.7945 30.5589 60.1199 31.7988L64.2189 27.4172ZM63.7434 26.848C63.7434 26.8723 63.7392 26.9993 63.6669 27.1802C63.5903 27.3715 63.4679 27.5463 63.3226 27.6795L59.2682 23.2565C58.1753 24.2584 57.7434 25.5783 57.7434 26.848H63.7434ZM63.2333 27.7582C63.0906 27.8789 62.9573 27.9355 62.8851 27.9576C62.8221 27.9768 62.8325 27.962 62.9514 27.962V21.962C61.7862 21.962 60.4621 22.2432 59.3576 23.1778L63.2333 27.7582ZM62.9514 27.962C62.8534 27.962 62.9557 27.9474 63.349 28.0766C63.7132 28.1963 64.2089 28.3996 64.8528 28.7146L67.4901 23.3253C66.0337 22.6126 64.4109 21.962 62.9514 21.962V27.962ZM64.8996 28.7371C66.6253 29.5448 68.3969 30.032 70.1734 30.032V24.032C69.4966 24.032 68.6002 23.8445 67.4432 23.3029L64.8996 28.7371ZM70.1734 30.032C71.1659 30.032 72.3513 29.9258 73.3929 29.4145C73.9553 29.1384 74.5643 28.7004 75.0272 28.0186C75.5048 27.3153 75.7034 26.5334 75.7034 25.79H69.7034C69.7034 25.4606 69.7967 25.0409 70.0634 24.6481C70.3155 24.2768 70.6082 24.0976 70.7489 24.0285C70.8791 23.9646 70.9194 23.9735 70.7958 23.9938C70.6806 24.0126 70.4803 24.032 70.1734 24.032V30.032ZM75.7034 25.79C75.7034 24.367 74.9081 23.375 74.1831 22.8249C73.5227 22.324 72.7708 22.0525 72.1672 21.886L70.5716 27.67C70.8574 27.7488 70.7724 27.7687 70.5568 27.6051C70.4305 27.5093 70.2133 27.3151 70.025 26.9904C69.8242 26.6443 69.7034 26.2288 69.7034 25.79H75.7034ZM72.2586 21.9128C71.3008 21.6156 70.0809 21.2794 68.6156 20.9052L67.1313 26.7188C68.5486 27.0806 69.6594 27.3884 70.4802 27.6432L72.2586 21.9128ZM68.6156 20.9052C67.3569 20.5839 66.5403 20.2264 66.0457 19.9085L62.8011 24.9555C64.0239 25.7416 65.5073 26.3041 67.1313 26.7188L68.6156 20.9052ZM65.6127 19.6778C64.5811 19.2323 64.2117 18.8293 64.095 18.6477L59.0479 21.8923C60.0352 23.4281 61.5671 24.4663 63.2341 25.1862L65.6127 19.6778ZM64.1595 18.7528C63.9614 18.4149 63.7894 17.8908 63.7894 17.05H57.7894C57.7894 18.7238 58.1388 20.3464 58.9833 21.7872L64.1595 18.7528ZM63.7894 17.05C63.7894 16.0532 64.1701 15.1817 65.4895 14.3022L62.1613 9.30985C59.4327 11.1289 57.7894 13.7535 57.7894 17.05H63.7894ZM65.4981 14.2964C66.9247 13.3382 68.9445 12.736 71.7834 12.736V6.736C68.121 6.736 64.8354 7.51378 62.1528 9.31558L65.4981 14.2964ZM88.2051 16.728H91.2051V13.8456L88.325 13.7304L88.2051 16.728ZM86.3651 16.36L84.9533 19.0071L85.0239 19.0447L85.0964 19.0785L86.3651 16.36ZM85.3531 15.44L82.6698 16.7816L82.713 16.8681L82.7617 16.9516L85.3531 15.44ZM88.2511 11.208L88.4679 14.2002L91.2511 13.9985V11.208H88.2511ZM90.7811 3.802L92.2176 6.43568L92.2359 6.4257L92.2541 6.41545L90.7811 3.802ZM97.7731 3.25L95.1183 4.64724L97.7731 3.25ZM98.2331 5.872H95.2331V5.88504L95.2332 5.89808L98.2331 5.872ZM98.2791 11.162L95.2792 11.1881L95.305 14.162H98.2791V11.162ZM102.971 11.852L101.171 14.252L101.238 14.302L101.307 14.3482L102.971 11.852ZM103.661 15.486L101.027 14.0494L101.027 14.0494L103.661 15.486ZM102.741 16.268L101.559 13.5106L101.521 13.5268L101.484 13.5441L102.741 16.268ZM101.269 16.682L101.583 19.6655L101.66 19.6574L101.737 19.6453L101.269 16.682ZM98.2791 16.774V13.774H95.2791V16.774H98.2791ZM98.3251 23.076L95.3374 23.3476L95.3519 23.5072L95.3833 23.6643L98.3251 23.076ZM98.5551 23.812L95.8718 25.1536L98.5551 23.812ZM98.9231 24.18L97.8089 26.9654L97.8907 26.9982L97.9744 27.0261L98.9231 24.18ZM100.487 23.904L102.608 26.0253L102.671 25.963L102.729 25.8971L100.487 23.904ZM101.039 23.03L98.308 21.7886L98.2793 21.8516L98.2536 21.9158L101.039 23.03ZM101.591 22.156L99.3488 20.1629L99.341 20.1717L99.3333 20.1805L101.591 22.156ZM104.029 22.248L102.002 24.4595L102.046 24.4997L102.091 24.5382L104.029 22.248ZM104.121 26.158L101.294 25.1548L101.279 25.1957L101.266 25.237L104.121 26.158ZM102.741 28.918L105.211 30.6212V30.6212L102.741 28.918ZM100.165 31.126L98.7648 28.4728L98.7492 28.4811L98.7338 28.4894L100.165 31.126ZM90.0911 29.7L92.4109 27.7978L90.0911 29.7ZM91.2051 22.156V16.728H85.2051V22.156H91.2051ZM88.325 13.7304C88.0652 13.72 87.8807 13.6957 87.7584 13.6713C87.6347 13.6465 87.6034 13.6273 87.6337 13.6415L85.0964 19.0785C86.0528 19.5249 87.1045 19.6864 88.0852 19.7256L88.325 13.7304ZM87.7768 13.7129C87.7351 13.6907 87.7461 13.6907 87.7851 13.7262C87.8266 13.7639 87.8874 13.8306 87.9444 13.9284L82.7617 16.9516C83.3134 17.8974 84.1123 18.5585 84.9533 19.0071L87.7768 13.7129ZM88.0363 14.0984C88.0789 14.1835 88.0887 14.235 88.0878 14.2307C88.0874 14.2285 88.0846 14.214 88.082 14.1851C88.0794 14.1563 88.0771 14.115 88.0771 14.06H82.0771C82.0771 14.9259 82.2188 15.8798 82.6698 16.7816L88.0363 14.0984ZM88.0771 14.06C88.0771 13.9225 88.098 13.9182 88.0685 13.9935C88.0536 14.0315 88.0292 14.0806 87.9926 14.1336C87.9559 14.1869 87.9151 14.2321 87.8757 14.2675C87.795 14.34 87.7606 14.3364 87.848 14.306C87.9416 14.2734 88.1358 14.2242 88.4679 14.2002L88.0342 8.21585C86.6244 8.318 85.0807 8.71257 83.8655 9.80451C82.5619 10.9759 82.0771 12.5453 82.0771 14.06H88.0771ZM91.2511 11.208V6.93H85.2511V11.208H91.2511ZM91.2511 6.93C91.2511 7.00977 91.235 7.08857 91.2117 7.14941C91.1904 7.20529 91.1776 7.20824 91.2161 7.16061C91.3085 7.0463 91.5816 6.7826 92.2176 6.43568L89.3445 1.16831C87.3532 2.2545 85.2511 4.07911 85.2511 6.93H91.2511ZM92.2541 6.41545C93.5678 5.67503 94.7365 5.376 95.7951 5.376V-0.624002C93.5417 -0.624002 91.3677 0.0276337 89.308 1.18854L92.2541 6.41545ZM95.7951 5.376C96.0406 5.376 96.0098 5.41531 95.8361 5.33856C95.7391 5.29573 95.6047 5.21931 95.4642 5.09223C95.3212 4.96286 95.2037 4.80941 95.1183 4.64724L100.428 1.85276C99.3556 -0.184412 97.2662 -0.624002 95.7951 -0.624002V5.376ZM95.1183 4.64724C95.0861 4.58603 95.1229 4.63131 95.1632 4.8609C95.2022 5.08327 95.2331 5.41257 95.2331 5.872H101.233C101.233 4.54129 101.074 3.0814 100.428 1.85276L95.1183 4.64724ZM95.2332 5.89808L95.2792 11.1881L101.279 11.1359L101.233 5.84591L95.2332 5.89808ZM98.2791 14.162H99.5211V8.162H98.2791V14.162ZM99.5211 14.162C100.245 14.162 100.743 14.2128 101.06 14.2762C101.407 14.3455 101.362 14.3953 101.171 14.252L104.771 9.452C103.967 8.84868 103.04 8.55345 102.237 8.39276C101.404 8.22625 100.484 8.162 99.5211 8.162V14.162ZM101.307 14.3482C101.202 14.2785 101.11 14.1921 101.037 14.0991C100.965 14.0082 100.929 13.9327 100.914 13.8954C100.9 13.8604 100.906 13.8647 100.916 13.9247C100.926 13.9849 100.937 14.0885 100.937 14.244H106.937C106.937 12.6117 106.478 10.5846 104.635 9.35585L101.307 14.3482ZM100.937 14.244C100.937 14.3685 100.913 14.2583 101.027 14.0494L106.295 16.9226C106.777 16.039 106.937 15.1009 106.937 14.244H100.937ZM101.027 14.0494C101.12 13.8799 101.237 13.7452 101.35 13.6487C101.459 13.5563 101.541 13.5183 101.559 13.5106L103.923 19.0254C104.833 18.6353 105.724 17.9696 106.295 16.9226L101.027 14.0494ZM101.484 13.5441C101.405 13.5805 101.198 13.656 100.801 13.7187L101.737 19.6453C102.505 19.524 103.28 19.3235 103.998 18.9919L101.484 13.5441ZM100.955 13.6985C100.512 13.7451 99.9043 13.774 99.1071 13.774V19.774C100.027 19.774 100.86 19.7416 101.583 19.6655L100.955 13.6985ZM99.1071 13.774H98.2791V19.774H99.1071V13.774ZM95.2791 16.774V21.834H101.279V16.774H95.2791ZM95.2791 21.834C95.2791 22.379 95.2958 22.8899 95.3374 23.3476L101.313 22.8044C101.293 22.5875 101.279 22.2703 101.279 21.834H95.2791ZM95.3833 23.6643C95.4728 24.1118 95.6158 24.6417 95.8718 25.1536L101.238 22.4704C101.26 22.5131 101.273 22.5459 101.281 22.5655C101.289 22.5854 101.292 22.5959 101.292 22.5952C101.292 22.5946 101.289 22.5856 101.284 22.5669C101.28 22.5483 101.274 22.5222 101.267 22.4876L95.3833 23.6643ZM95.8718 25.1536C96.2085 25.8271 96.8173 26.5688 97.8089 26.9654L100.037 21.3946C100.722 21.6685 101.086 22.1649 101.238 22.4704L95.8718 25.1536ZM97.9744 27.0261C98.533 27.2122 99.0807 27.272 99.5671 27.272V21.272C99.5682 21.272 99.5963 21.272 99.6463 21.2792C99.6966 21.2863 99.7744 21.3015 99.8717 21.334L97.9744 27.0261ZM99.5671 27.272C100.677 27.272 101.764 26.87 102.608 26.0253L98.3657 21.7827C98.5156 21.6328 98.7161 21.4917 98.9589 21.3946C99.1982 21.2989 99.4129 21.272 99.5671 21.272V27.272ZM102.729 25.8971C103.178 25.3921 103.559 24.8087 103.824 24.1442L98.2536 21.9158C98.2582 21.9043 98.2626 21.8951 98.2661 21.8882C98.2696 21.8813 98.272 21.8774 98.2726 21.8765C98.2738 21.8746 98.2666 21.8864 98.2448 21.9109L102.729 25.8971ZM103.77 24.2714C103.819 24.1648 103.851 24.1288 103.849 24.1315L99.3333 20.1805C98.9016 20.6738 98.5662 21.2205 98.308 21.7886L103.77 24.2714ZM103.833 24.1491C103.751 24.2415 103.587 24.3971 103.324 24.5288C103.048 24.6667 102.734 24.742 102.419 24.742V18.742C101.082 18.742 100.037 19.3889 99.3488 20.1629L103.833 24.1491ZM102.419 24.742C102.54 24.742 102.537 24.7574 102.451 24.7305C102.354 24.6999 102.18 24.6232 102.002 24.4595L106.056 20.0365C104.943 19.0159 103.566 18.742 102.419 18.742V24.742ZM102.091 24.5382C102.013 24.4718 101.881 24.3342 101.775 24.1129C101.666 23.8867 101.627 23.6641 101.627 23.49H107.627C107.627 22.0541 106.99 20.8234 105.967 19.9578L102.091 24.5382ZM101.627 23.49C101.627 23.9108 101.541 24.4583 101.294 25.1548L106.948 27.1612C107.376 25.9564 107.627 24.7252 107.627 23.49H101.627ZM101.266 25.237C101.056 25.8878 100.732 26.5465 100.271 27.2148L105.211 30.6212C105.976 29.5108 106.573 28.3295 106.976 27.079L101.266 25.237ZM100.271 27.2148C99.9727 27.648 99.5078 28.0807 98.7648 28.4728L101.565 33.7792C103.03 33.006 104.283 31.9666 105.211 30.6212L100.271 27.2148ZM98.7338 28.4894C98.1445 28.8093 97.434 29 96.5311 29V35C98.3268 35 100.039 34.608 101.596 33.7626L98.7338 28.4894ZM96.5311 29C93.9107 29 92.8502 28.3335 92.4109 27.7978L87.7713 31.6022C89.8466 34.1332 93.0794 35 96.5311 35V29ZM92.4109 27.7978C91.8216 27.0791 91.2051 25.4333 91.2051 22.156H85.2051C85.2051 25.8707 85.8459 29.2542 87.7713 31.6022L92.4109 27.7978ZM125.786 6.746L124.444 9.42928L124.494 9.45412L124.545 9.4771L125.786 6.746ZM120.818 6.01V3.01H117.818V6.01H120.818ZM120.818 13.048H117.818V16.048H120.818V13.048ZM124.314 12.726L123.632 9.80448L123.621 9.80707L123.61 9.80975L124.314 12.726ZM127.12 19.304L124.939 21.3639L127.12 19.304ZM124.866 18.154L124.138 21.0644L124.181 21.0752L124.225 21.0847L124.866 18.154ZM120.818 17.786V14.786H117.818V17.786H120.818ZM120.818 25.744H117.818V28.744H120.818V25.744ZM126.154 24.87L127.496 27.5533L127.524 27.5393L127.551 27.5248L126.154 24.87ZM133.56 15.624L131.83 13.1731L128.043 15.8464L132.033 18.2062L133.56 15.624ZM137.102 25.928L134.348 24.7373L134.34 24.7557L134.333 24.7742L137.102 25.928ZM134.986 28.964L132.9 26.8082L132.882 26.8253L132.865 26.8427L134.986 28.964ZM131.306 31.172L132.272 34.0123L132.297 34.0037L132.322 33.9947L131.306 31.172ZM111.388 30.528L109.089 32.4558L109.107 32.4773L109.126 32.4983L111.388 30.528ZM110.744 3.204L108.02 1.94682V1.94683L110.744 3.204ZM112.492 1.272L110.963 -1.30888L110.941 -1.29611L110.92 -1.28298L112.492 1.272ZM125.97 0.535999L126 -2.46385L125.985 -2.464H125.97V0.535999ZM133.606 3.066L131.706 5.38787L131.725 5.40352L131.745 5.41885L133.606 3.066ZM136.458 11.576L133.54 10.8811L133.527 10.9342L133.516 10.9876L136.458 11.576ZM134.894 14.52L132.773 12.3987L132.773 12.3987L134.894 14.52ZM130.304 9.368C130.304 8.33887 130.102 7.24659 129.521 6.24339C128.923 5.21162 128.042 4.47596 127.027 4.0149L124.545 9.4771C124.556 9.48219 124.522 9.46844 124.47 9.42212C124.415 9.37395 124.365 9.31317 124.328 9.24961C124.253 9.12041 124.304 9.10913 124.304 9.368H130.304ZM127.128 4.06272C125.474 3.23613 123.204 3.01 120.818 3.01V9.01C123.093 9.01 124.135 9.27453 124.444 9.42928L127.128 4.06272ZM117.818 6.01V13.048H123.818V6.01H117.818ZM120.818 16.048C122.377 16.048 123.806 15.9349 125.018 15.6422L123.61 9.80975C123.044 9.94647 122.141 10.048 120.818 10.048V16.048ZM124.996 15.6475C126.309 15.341 127.583 14.7576 128.597 13.7433L124.355 9.50068C124.326 9.52907 124.158 9.6817 123.632 9.80448L124.996 15.6475ZM128.597 13.7433C129.83 12.5104 130.304 10.9297 130.304 9.368H124.304C124.304 9.55503 124.277 9.62138 124.281 9.61005C124.283 9.60427 124.291 9.58627 124.306 9.56193C124.322 9.53738 124.339 9.51626 124.355 9.50068L128.597 13.7433ZM130.902 21.65C130.902 20.1332 130.504 18.5176 129.301 17.2441L124.939 21.3639C124.911 21.3339 124.889 21.3036 124.874 21.2783C124.86 21.2536 124.857 21.2426 124.86 21.2532C124.869 21.2778 124.902 21.3958 124.902 21.65H130.902ZM129.301 17.2441C128.251 16.1323 126.89 15.5258 125.507 15.2233L124.225 21.0847C124.511 21.1473 124.694 21.2195 124.802 21.2748C124.906 21.3277 124.938 21.3633 124.939 21.3639L129.301 17.2441ZM125.594 15.2436C124.266 14.9117 122.636 14.786 120.818 14.786V20.786C122.435 20.786 123.503 20.9057 124.138 21.0644L125.594 15.2436ZM117.818 17.786V25.744H123.818V17.786H117.818ZM120.818 28.744C123.348 28.744 125.696 28.453 127.496 27.5533L124.812 22.1867C124.281 22.4523 123.072 22.744 120.818 22.744V28.744ZM127.551 27.5248C129.884 26.2968 130.902 24.0751 130.902 21.65H124.902C124.902 21.8449 124.883 21.9772 124.865 22.0593C124.847 22.1391 124.83 22.1712 124.828 22.1737C124.827 22.1757 124.828 22.1742 124.831 22.1707C124.832 22.1691 124.833 22.1677 124.834 22.1665C124.835 22.1654 124.836 22.1648 124.836 22.1649C124.836 22.165 124.834 22.166 124.832 22.168C124.83 22.17 124.826 22.1731 124.82 22.1772C124.808 22.1854 124.788 22.1986 124.757 22.2152L127.551 27.5248ZM132.033 18.2062C134.16 19.4644 134.838 20.8273 134.838 22.386H140.838C140.838 18.3021 138.664 15.1569 135.087 13.0418L132.033 18.2062ZM134.838 22.386C134.838 23.1998 134.678 23.9755 134.348 24.7373L139.856 27.1187C140.507 25.6111 140.838 24.0255 140.838 22.386H134.838ZM134.333 24.7742C134.046 25.4629 133.588 26.1419 132.9 26.8082L137.072 31.1198C138.285 29.9461 139.238 28.6011 139.871 27.0818L134.333 24.7742ZM132.865 26.8427C132.325 27.3819 131.51 27.9102 130.29 28.3493L132.322 33.9947C134.169 33.3298 135.806 32.3861 137.107 31.0853L132.865 26.8427ZM130.34 28.3317C129.171 28.7291 127.773 28.954 126.108 28.954V34.954C128.307 34.954 130.374 34.6575 132.272 34.0123L130.34 28.3317ZM126.108 28.954H115.436V34.954H126.108V28.954ZM115.436 28.954C114.007 28.954 113.678 28.5899 113.65 28.5577L109.126 32.4983C110.754 34.3674 113.124 34.954 115.436 34.954V28.954ZM113.687 28.6002C113.688 28.6014 113.545 28.4232 113.412 27.8543C113.281 27.2972 113.192 26.503 113.192 25.422H107.192C107.192 27.9931 107.568 30.6415 109.089 32.4558L113.687 28.6002ZM113.192 25.422V5.964H107.192V25.422H113.192ZM113.192 5.964C113.192 5.27511 113.313 4.79742 113.468 4.46117L108.02 1.94683C107.439 3.20524 107.192 4.56755 107.192 5.964H113.192ZM113.468 4.46117C113.572 4.23651 113.735 4.02942 114.064 3.82697L110.92 -1.28298C109.654 -0.504084 108.652 0.576824 108.02 1.94682L113.468 4.46117ZM114.021 3.85287C114.309 3.68218 114.742 3.536 115.436 3.536V-2.464C113.86 -2.464 112.331 -2.11952 110.963 -1.30888L114.021 3.85287ZM115.436 3.536H125.97V-2.464H115.436V3.536ZM125.94 3.53585C128.448 3.56092 130.298 4.23586 131.706 5.38787L135.506 0.744128C132.866 -1.41586 129.626 -2.42759 126 -2.46385L125.94 3.53585ZM131.745 5.41885C133.094 6.48649 133.688 7.72718 133.688 9.368H139.688C139.688 5.85682 138.227 2.89617 135.467 0.713149L131.745 5.41885ZM133.688 9.368C133.688 10.0176 133.627 10.5132 133.54 10.8811L139.376 12.2709C139.595 11.3508 139.688 10.3744 139.688 9.368H133.688ZM133.516 10.9876C133.449 11.3255 133.35 11.5744 133.245 11.7612L138.475 14.7028C138.922 13.9083 139.222 13.0532 139.4 12.1643L133.516 10.9876ZM133.245 11.7612C133.092 12.0329 132.932 12.2391 132.773 12.3987L137.015 16.6413C137.592 16.0649 138.076 15.4124 138.475 14.7028L133.245 11.7612ZM132.773 12.3987C132.549 12.6225 132.242 12.8825 131.83 13.1731L135.29 18.0749C135.921 17.6295 136.503 17.1535 137.015 16.6413L132.773 12.3987ZM143.836 1.18L145.636 3.58L145.643 3.57505L145.649 3.57007L143.836 1.18ZM151.288 6.378L149.731 3.81363L149.711 3.8263L149.69 3.8393L151.288 6.378ZM143.974 6.332L142.468 8.92636L143.974 6.332ZM151.38 30.942L153.411 33.1498L153.435 33.1282L153.458 33.1062L151.38 30.942ZM143.606 30.758L141.206 32.558L141.243 32.6063L141.281 32.653L143.606 30.758ZM143.882 11.484L141.656 9.47314L141.638 9.49324L141.62 9.51366L143.882 11.484ZM151.15 11.162L149.276 13.5046L149.3 13.524L149.325 13.5428L151.15 11.162ZM145.548 3.664C145.548 3.62427 145.552 3.61245 145.55 3.62119C145.548 3.63095 145.543 3.64765 145.534 3.66495C145.525 3.68181 145.52 3.6846 145.531 3.67301C145.542 3.66042 145.573 3.62782 145.636 3.58L142.036 -1.22C140.476 -0.0494757 139.548 1.64293 139.548 3.664H145.548ZM145.649 3.57007C145.835 3.42895 146.35 3.168 147.562 3.168V-2.832C145.585 -2.832 143.616 -2.41828 142.023 -1.21007L145.649 3.57007ZM147.562 3.168C148.977 3.168 149.504 3.43135 149.607 3.50287C149.622 3.51336 149.583 3.48402 149.556 3.42844C149.537 3.38771 149.576 3.43954 149.576 3.664H155.576C155.576 1.68099 154.804 -0.187891 153.039 -1.41888C151.47 -2.51269 149.49 -2.832 147.562 -2.832V3.168ZM149.576 3.664C149.576 3.98589 149.521 4.06977 149.544 4.02227C149.557 3.99583 149.583 3.95173 149.626 3.90426C149.668 3.85686 149.709 3.82745 149.731 3.81363L152.845 8.94236C154.855 7.72191 155.576 5.66192 155.576 3.664H149.576ZM149.69 3.8393C149.568 3.91614 149 4.16 147.562 4.16V10.16C149.436 10.16 151.353 9.88252 152.887 8.9167L149.69 3.8393ZM147.562 4.16C146.49 4.16 145.853 3.95366 145.481 3.73763L142.468 8.92636C143.997 9.81434 145.752 10.16 147.562 10.16V4.16ZM145.481 3.73763C145.453 3.72159 145.46 3.7214 145.483 3.7448C145.494 3.75592 145.507 3.77015 145.519 3.78713C145.532 3.80412 145.542 3.82112 145.551 3.83687C145.568 3.87014 145.569 3.88377 145.564 3.86322C145.559 3.84053 145.548 3.77781 145.548 3.664H139.548C139.548 5.81041 140.47 7.76648 142.468 8.92636L145.481 3.73763ZM149.53 27.078C149.53 27.8071 149.452 28.283 149.367 28.5682C149.285 28.8438 149.225 28.8527 149.303 28.7778L153.458 33.1062C155.122 31.5086 155.53 29.1761 155.53 27.078H149.53ZM149.349 28.7342C149.428 28.6614 149.389 28.7404 149.035 28.833C148.682 28.9251 148.133 29 147.332 29V35C149.445 35 151.779 34.6514 153.411 33.1498L149.349 28.7342ZM147.332 29C146.636 29 146.216 28.9178 145.992 28.8434C145.789 28.7757 145.836 28.7455 145.932 28.863L141.281 32.653C142.821 34.5438 145.228 35 147.332 35V29ZM146.006 28.958C146.007 28.9593 145.981 28.9243 145.941 28.8316C145.901 28.7382 145.852 28.5962 145.805 28.3929C145.709 27.9779 145.64 27.3842 145.64 26.572H139.64C139.64 28.6964 139.967 30.9058 141.206 32.558L146.006 28.958ZM145.64 26.572V15.256H139.64V26.572H145.64ZM145.64 15.256C145.64 14.2355 145.899 13.7364 146.145 13.4543L141.62 9.51366C140.21 11.133 139.64 13.1485 139.64 15.256H145.64ZM146.109 13.4949C146.337 13.2417 146.628 13.058 147.286 13.058V7.058C145.123 7.058 143.145 7.82492 141.656 9.47314L146.109 13.4949ZM147.286 13.058C148.532 13.058 149.067 13.3373 149.276 13.5046L153.024 8.81939C151.394 7.51468 149.352 7.058 147.286 7.058V13.058ZM149.325 13.5428C149.233 13.4722 149.276 13.4468 149.353 13.6681C149.438 13.9138 149.53 14.369 149.53 15.118H155.53C155.53 12.8669 155.015 10.3451 152.976 8.78118L149.325 13.5428ZM149.53 15.118V27.078H155.53V15.118H149.53ZM170.824 19.626H167.824V19.6341L167.824 19.6421L170.824 19.626ZM167.19 17.878L164.822 16.0362L164.814 16.0459L164.807 16.0556L167.19 17.878ZM166.5 19.994L163.507 19.7876L163.5 19.8907V19.994H166.5ZM165.35 30.942L167.381 33.1498L165.35 30.942ZM157.576 30.758L155.176 32.558L155.212 32.6063L155.25 32.653L157.576 30.758ZM157.852 11.484L155.626 9.47314L155.607 9.49324L155.59 9.51366L157.852 11.484ZM164.2 10.564L163.031 13.3269L164.2 10.564ZM165.994 12.312L163.291 13.6134L164.774 16.6939L167.636 14.8229L165.994 12.312ZM179.426 12.542L176.801 13.9949L176.811 14.0128L176.821 14.0304L179.426 12.542ZM180.76 25.744L183.751 25.9741L183.752 25.9684L180.76 25.744ZM180.3 28.872L177.384 28.1681L177.375 28.2056L177.367 28.2434L180.3 28.872ZM179.38 30.804L181.501 32.9253L179.38 30.804ZM177.862 31.724L176.959 28.8633L176.936 28.8704L176.913 28.8779L177.862 31.724ZM171.974 31.034L169.998 33.2917L170.021 33.3117L170.044 33.3311L171.974 31.034ZM170.87 28.182H173.87V28.1739L173.87 28.1659L170.87 28.182ZM173.824 19.626C173.824 18.4561 173.608 17.0255 172.677 15.8405C171.638 14.5178 170.156 14.05 168.8 14.05V20.05C168.824 20.05 168.705 20.054 168.514 19.9727C168.304 19.8837 168.105 19.7337 167.959 19.5475C167.824 19.3761 167.793 19.2498 167.795 19.2591C167.799 19.2734 167.824 19.3833 167.824 19.626H173.824ZM168.8 14.05C167.142 14.05 165.763 14.8256 164.822 16.0362L169.558 19.7198C169.547 19.7339 169.463 19.8339 169.286 19.9249C169.102 20.0197 168.922 20.05 168.8 20.05V14.05ZM164.807 16.0556C163.944 17.1841 163.595 18.516 163.507 19.7876L169.493 20.2004C169.528 19.6933 169.639 19.6146 169.573 19.7004L164.807 16.0556ZM163.5 19.994V27.078H169.5V19.994H163.5ZM163.5 27.078C163.5 27.8279 163.421 28.3099 163.337 28.5912C163.256 28.8641 163.204 28.8396 163.319 28.7342L167.381 33.1498C169.107 31.5618 169.5 29.1696 169.5 27.078H163.5ZM163.319 28.7342C163.398 28.6614 163.359 28.7404 163.004 28.833C162.652 28.9251 162.102 29 161.302 29V35C163.414 35 165.749 34.6514 167.381 33.1498L163.319 28.7342ZM161.302 29C160.606 29 160.185 28.9178 159.962 28.8434C159.759 28.7757 159.806 28.7455 159.902 28.863L155.25 32.653C156.791 34.5438 159.198 35 161.302 35V29ZM159.976 28.958C159.977 28.9593 159.95 28.9243 159.911 28.8316C159.871 28.7382 159.822 28.5962 159.775 28.3929C159.679 27.9779 159.61 27.3842 159.61 26.572H153.61C153.61 28.6964 153.937 30.9058 155.176 32.558L159.976 28.958ZM159.61 26.572V15.256H153.61V26.572H159.61ZM159.61 15.256C159.61 14.2355 159.869 13.7364 160.114 13.4543L155.59 9.51366C154.179 11.133 153.61 13.1485 153.61 15.256H159.61ZM160.078 13.4949C160.307 13.2417 160.598 13.058 161.256 13.058V7.058C159.093 7.058 157.114 7.82492 155.626 9.47314L160.078 13.4949ZM161.256 13.058C162.151 13.058 162.708 13.1901 163.031 13.3269L165.369 7.8011C164.098 7.26324 162.692 7.058 161.256 7.058V13.058ZM163.031 13.3269C163.113 13.3614 163.188 13.399 163.291 13.6134L168.697 11.0106C168.003 9.56903 166.882 8.44125 165.369 7.8011L163.031 13.3269ZM167.636 14.8229C169.449 13.6375 171.763 12.966 174.734 12.966V6.966C170.835 6.966 167.323 7.85847 164.352 9.80109L167.636 14.8229ZM174.734 12.966C175.965 12.966 176.446 13.353 176.801 13.9949L182.051 11.0891C180.505 8.29635 177.857 6.966 174.734 6.966V12.966ZM176.821 14.0304C177.394 15.0325 177.898 17.1821 177.898 21.006H183.898C183.898 16.9792 183.421 13.4862 182.031 11.0536L176.821 14.0304ZM177.898 21.006C177.898 22.9001 177.853 24.3971 177.768 25.5196L183.752 25.9684C183.851 24.6376 183.898 22.9759 183.898 21.006H177.898ZM177.769 25.5139C177.686 26.5963 177.551 27.4737 177.384 28.1681L183.216 29.5759C183.478 28.4916 183.65 27.2837 183.751 25.9741L177.769 25.5139ZM177.367 28.2434C177.313 28.4946 177.256 28.64 177.223 28.7092C177.192 28.7753 177.193 28.7478 177.259 28.6827L181.501 32.9253C182.484 31.9429 182.979 30.6853 183.233 29.5006L177.367 28.2434ZM177.259 28.6827C177.172 28.7691 177.085 28.8234 176.959 28.8633L178.765 34.5847C179.804 34.2566 180.729 33.6976 181.501 32.9253L177.259 28.6827ZM176.913 28.8779C176.784 28.9211 176.419 29 175.7 29V35C176.76 35 177.836 34.8949 178.811 34.57L176.913 28.8779ZM175.7 29C175.015 29 174.542 28.9344 174.233 28.8545C173.927 28.7752 173.863 28.7024 173.904 28.7369L170.044 33.3311C171.622 34.6563 173.737 35 175.7 35V29ZM173.949 28.7763C173.949 28.7756 173.95 28.7766 173.952 28.7791C173.954 28.7817 173.956 28.7841 173.958 28.7859C173.961 28.7907 173.955 28.7834 173.944 28.755C173.921 28.6953 173.87 28.5238 173.87 28.182H167.87C167.87 30.0402 168.436 31.9245 169.998 33.2917L173.949 28.7763ZM173.87 28.1659L173.824 19.6099L167.824 19.6421L167.87 28.1981L173.87 28.1659Z" fill="white"/>
</svg>
